<mxfile host="app.diagrams.net" modified="2024-03-10T18:38:09.943Z" agent="Mozilla/5.0 (Windows NT 10.0; Win64; x64) AppleWebKit/537.36 (KHTML, like Gecko) Chrome/122.0.0.0 Safari/537.36" etag="BMnCk5OpC8RjjRNgovEG" version="24.0.4" type="device">
  <diagram name="Страница — 1" id="k3IqOTalcS6u482LNzfs">
    <mxGraphModel dx="2243" dy="727" grid="1" gridSize="10" guides="1" tooltips="1" connect="1" arrows="1" fold="1" page="1" pageScale="1" pageWidth="827" pageHeight="1169" math="0" shadow="0">
      <root>
        <mxCell id="0" />
        <mxCell id="1" parent="0" />
        <mxCell id="9vfnmXLarihRcA9y8Ejo-1" value="take_last_information_about_traffik" style="rounded=1;whiteSpace=wrap;html=1;" vertex="1" parent="1">
          <mxGeometry x="-10" y="285" width="220" height="50" as="geometry" />
        </mxCell>
        <mxCell id="9vfnmXLarihRcA9y8Ejo-8" style="edgeStyle=orthogonalEdgeStyle;rounded=0;orthogonalLoop=1;jettySize=auto;html=1;entryX=0.5;entryY=1;entryDx=0;entryDy=0;" edge="1" parent="1" source="9vfnmXLarihRcA9y8Ejo-2" target="9vfnmXLarihRcA9y8Ejo-6">
          <mxGeometry relative="1" as="geometry" />
        </mxCell>
        <mxCell id="9vfnmXLarihRcA9y8Ejo-2" value="save_information_in_the_table" style="rounded=1;whiteSpace=wrap;html=1;" vertex="1" parent="1">
          <mxGeometry x="285" y="280" width="190" height="60" as="geometry" />
        </mxCell>
        <mxCell id="9vfnmXLarihRcA9y8Ejo-11" style="edgeStyle=orthogonalEdgeStyle;rounded=0;orthogonalLoop=1;jettySize=auto;html=1;entryX=1;entryY=0.5;entryDx=0;entryDy=0;" edge="1" parent="1" source="9vfnmXLarihRcA9y8Ejo-3" target="9vfnmXLarihRcA9y8Ejo-6">
          <mxGeometry relative="1" as="geometry" />
        </mxCell>
        <mxCell id="9vfnmXLarihRcA9y8Ejo-3" value="update_information_in_the_table" style="rounded=1;whiteSpace=wrap;html=1;" vertex="1" parent="1">
          <mxGeometry x="390" y="490" width="220" height="50" as="geometry" />
        </mxCell>
        <mxCell id="9vfnmXLarihRcA9y8Ejo-20" style="edgeStyle=orthogonalEdgeStyle;rounded=0;orthogonalLoop=1;jettySize=auto;html=1;" edge="1" parent="1" source="9vfnmXLarihRcA9y8Ejo-5" target="9vfnmXLarihRcA9y8Ejo-15">
          <mxGeometry relative="1" as="geometry">
            <Array as="points">
              <mxPoint x="100" y="160" />
              <mxPoint x="-170" y="160" />
            </Array>
          </mxGeometry>
        </mxCell>
        <mxCell id="9vfnmXLarihRcA9y8Ejo-5" value="Lust info" style="shape=process;whiteSpace=wrap;html=1;backgroundOutline=1;" vertex="1" parent="1">
          <mxGeometry x="40" y="60" width="120" height="60" as="geometry" />
        </mxCell>
        <mxCell id="9vfnmXLarihRcA9y8Ejo-6" value="Traffic information" style="shape=process;whiteSpace=wrap;html=1;backgroundOutline=1;" vertex="1" parent="1">
          <mxGeometry x="320" y="60" width="120" height="60" as="geometry" />
        </mxCell>
        <mxCell id="9vfnmXLarihRcA9y8Ejo-25" style="edgeStyle=orthogonalEdgeStyle;rounded=0;orthogonalLoop=1;jettySize=auto;html=1;entryX=0.5;entryY=0;entryDx=0;entryDy=0;" edge="1" parent="1" source="9vfnmXLarihRcA9y8Ejo-7" target="9vfnmXLarihRcA9y8Ejo-23">
          <mxGeometry relative="1" as="geometry">
            <mxPoint x="820" y="360" as="targetPoint" />
            <Array as="points">
              <mxPoint x="680" y="230" />
              <mxPoint x="790" y="230" />
              <mxPoint x="790" y="355" />
              <mxPoint x="1013" y="355" />
            </Array>
          </mxGeometry>
        </mxCell>
        <mxCell id="9vfnmXLarihRcA9y8Ejo-7" value="Traffic limit" style="shape=process;whiteSpace=wrap;html=1;backgroundOutline=1;" vertex="1" parent="1">
          <mxGeometry x="620" y="60" width="120" height="60" as="geometry" />
        </mxCell>
        <mxCell id="9vfnmXLarihRcA9y8Ejo-10" style="edgeStyle=orthogonalEdgeStyle;rounded=0;orthogonalLoop=1;jettySize=auto;html=1;exitX=0.25;exitY=1;exitDx=0;exitDy=0;entryX=0.541;entryY=0.04;entryDx=0;entryDy=0;entryPerimeter=0;" edge="1" parent="1" source="9vfnmXLarihRcA9y8Ejo-6" target="9vfnmXLarihRcA9y8Ejo-1">
          <mxGeometry relative="1" as="geometry" />
        </mxCell>
        <mxCell id="9vfnmXLarihRcA9y8Ejo-13" style="edgeStyle=orthogonalEdgeStyle;rounded=0;orthogonalLoop=1;jettySize=auto;html=1;entryX=0.5;entryY=1;entryDx=0;entryDy=0;" edge="1" parent="1" source="9vfnmXLarihRcA9y8Ejo-12" target="9vfnmXLarihRcA9y8Ejo-7">
          <mxGeometry relative="1" as="geometry" />
        </mxCell>
        <mxCell id="9vfnmXLarihRcA9y8Ejo-12" value="save_information_in_the_table_about_limit" style="rounded=1;whiteSpace=wrap;html=1;" vertex="1" parent="1">
          <mxGeometry x="910" y="180" width="240" height="50" as="geometry" />
        </mxCell>
        <mxCell id="9vfnmXLarihRcA9y8Ejo-19" style="edgeStyle=orthogonalEdgeStyle;rounded=0;orthogonalLoop=1;jettySize=auto;html=1;entryX=0;entryY=0.5;entryDx=0;entryDy=0;" edge="1" parent="1" source="9vfnmXLarihRcA9y8Ejo-14" target="9vfnmXLarihRcA9y8Ejo-5">
          <mxGeometry relative="1" as="geometry" />
        </mxCell>
        <mxCell id="9vfnmXLarihRcA9y8Ejo-14" value="save_information_about_last_info" style="rounded=1;whiteSpace=wrap;html=1;" vertex="1" parent="1">
          <mxGeometry x="-300" y="65" width="240" height="50" as="geometry" />
        </mxCell>
        <mxCell id="9vfnmXLarihRcA9y8Ejo-15" value="take_information_abut_lust_info" style="rounded=1;whiteSpace=wrap;html=1;" vertex="1" parent="1">
          <mxGeometry x="-290" y="235" width="240" height="50" as="geometry" />
        </mxCell>
        <mxCell id="9vfnmXLarihRcA9y8Ejo-17" style="edgeStyle=orthogonalEdgeStyle;rounded=0;orthogonalLoop=1;jettySize=auto;html=1;entryX=1;entryY=0.5;entryDx=0;entryDy=0;" edge="1" parent="1" source="9vfnmXLarihRcA9y8Ejo-16" target="9vfnmXLarihRcA9y8Ejo-7">
          <mxGeometry relative="1" as="geometry" />
        </mxCell>
        <mxCell id="9vfnmXLarihRcA9y8Ejo-16" value="update_informattion_in_the_table_about_limit" style="rounded=1;whiteSpace=wrap;html=1;" vertex="1" parent="1">
          <mxGeometry x="827" y="65" width="270" height="50" as="geometry" />
        </mxCell>
        <mxCell id="9vfnmXLarihRcA9y8Ejo-22" style="edgeStyle=orthogonalEdgeStyle;rounded=0;orthogonalLoop=1;jettySize=auto;html=1;entryX=0;entryY=0.25;entryDx=0;entryDy=0;" edge="1" parent="1" source="9vfnmXLarihRcA9y8Ejo-21" target="9vfnmXLarihRcA9y8Ejo-5">
          <mxGeometry relative="1" as="geometry" />
        </mxCell>
        <mxCell id="9vfnmXLarihRcA9y8Ejo-21" value="update_informatin_in_the_table_Lust_info" style="rounded=1;whiteSpace=wrap;html=1;" vertex="1" parent="1">
          <mxGeometry x="-330" y="330" width="240" height="50" as="geometry" />
        </mxCell>
        <mxCell id="9vfnmXLarihRcA9y8Ejo-24" style="edgeStyle=orthogonalEdgeStyle;rounded=0;orthogonalLoop=1;jettySize=auto;html=1;entryX=0.5;entryY=1;entryDx=0;entryDy=0;" edge="1" parent="1" source="9vfnmXLarihRcA9y8Ejo-23" target="9vfnmXLarihRcA9y8Ejo-7">
          <mxGeometry relative="1" as="geometry">
            <Array as="points">
              <mxPoint x="1013" y="355" />
              <mxPoint x="790" y="355" />
              <mxPoint x="790" y="230" />
              <mxPoint x="680" y="230" />
            </Array>
          </mxGeometry>
        </mxCell>
        <mxCell id="9vfnmXLarihRcA9y8Ejo-23" value="load_and_save_information_about_traffic_limit" style="rounded=1;whiteSpace=wrap;html=1;" vertex="1" parent="1">
          <mxGeometry x="850" y="450" width="326" height="50" as="geometry" />
        </mxCell>
      </root>
    </mxGraphModel>
  </diagram>
</mxfile>
